<?xml version="1.0" standalone="no"?><!DOCTYPE svg PUBLIC "-//W3C//DTD SVG 1.1//EN" "http://www.w3.org/Graphics/SVG/1.1/DTD/svg11.dtd"><svg t="1545817896749" class="icon" style="" viewBox="0 0 1024 1024" version="1.1" xmlns="http://www.w3.org/2000/svg" p-id="5649" xmlns:xlink="http://www.w3.org/1999/xlink" width="200" height="200"><defs><style type="text/css"></style></defs><path d="M892.342857 1024H131.657143c-73.142857 0-131.657143-58.514286-131.657143-131.657143V131.657143C0 58.514286 58.514286 0 131.657143 0h760.685714c73.142857 0 131.657143 58.514286 131.657143 131.657143v760.685714c0 73.142857-58.514286 131.657143-131.657143 131.657143zM131.657143 43.885714C80.457143 43.885714 43.885714 80.457143 43.885714 131.657143v760.685714c0 51.2 36.571429 87.771429 87.771429 87.771429h760.685714c51.2 0 87.771429-36.571429 87.771429-87.771429V131.657143c0-51.2-36.571429-87.771429-87.771429-87.771429H131.657143z" fill="#8a8a8a" p-id="5650"></path><path d="M277.942857 438.857143V168.228571h95.085714c95.085714 0 146.285714 43.885714 146.285715 131.657143 0 43.885714-14.628571 80.457143-43.885715 102.4-29.257143 29.257143-58.514286 36.571429-102.4 36.571429H277.942857z m58.514286-226.742857v182.857143H365.714286c29.257143 0 51.2-7.314286 65.828571-21.942858s21.942857-36.571429 21.942857-65.828571-7.314286-51.2-21.942857-65.828571c-14.628571-21.942857-36.571429-29.257143-65.828571-29.257143h-29.257143zM563.2 438.857143V168.228571H658.285714c29.257143 0 51.2 7.314286 73.142857 14.628572 14.628571 14.628571 21.942857 29.257143 21.942858 43.885714 0 14.628571-7.314286 29.257143-14.628572 36.571429-7.314286 14.628571-21.942857 21.942857-36.571428 29.257143 21.942857 0 36.571429 7.314286 43.885714 21.942857 14.628571 14.628571 14.628571 29.257143 14.628571 43.885714 0 21.942857-7.314286 43.885714-29.257143 58.514286-7.314286 14.628571-29.257143 21.942857-65.828571 21.942857H563.2z m58.514286-226.742857v65.828571h29.257143c14.628571 0 21.942857 0 29.257142-7.314286 7.314286-7.314286 14.628571-14.628571 14.628572-29.257142 0-21.942857-14.628571-29.257143-43.885714-29.257143h-29.257143z m0 109.714285v73.142858H658.285714c14.628571 0 29.257143 0 36.571429-7.314286s14.628571-14.628571 14.628571-29.257143-7.314286-21.942857-14.628571-29.257143c-7.314286-7.314286-21.942857-7.314286-36.571429-7.314286h-36.571428z" fill="#8a8a8a" p-id="5651"></path><path d="M226.742857 877.714286V548.571429h117.028572c117.028571 0 175.542857 51.2 175.542857 160.914285 0 51.2-14.628571 95.085714-51.2 124.342857s-73.142857 43.885714-124.342857 43.885715H226.742857z m73.142857-270.628572v219.428572h36.571429c36.571429 0 58.514286-7.314286 80.457143-29.257143s29.257143-43.885714 29.257143-80.457143S438.857143 658.285714 416.914286 636.342857s-51.2-29.257143-80.457143-29.257143h-36.571429zM577.828571 877.714286V548.571429h117.028572c36.571429 0 65.828571 7.314286 80.457143 21.942857 14.628571 14.628571 29.257143 29.257143 29.257143 58.514285 0 14.628571-7.314286 36.571429-14.628572 43.885715s-29.257143 21.942857-43.885714 29.257143c21.942857 0 43.885714 14.628571 58.514286 29.257142s21.942857 29.257143 21.942857 51.2c0 29.257143-7.314286 51.2-29.257143 73.142858s-58.514286 21.942857-95.085714 21.942857H577.828571z m65.828572-277.942857v80.457142h36.571428c14.628571 0 29.257143-7.314286 36.571429-14.628571s14.628571-14.628571 14.628571-29.257143c0-21.942857-21.942857-36.571429-58.514285-36.571428h-29.257143z m0 138.971428v87.771429h43.885714c14.628571 0 29.257143-7.314286 43.885714-14.628572s14.628571-21.942857 14.628572-36.571428-7.314286-21.942857-14.628572-29.257143-21.942857-14.628571-43.885714-14.628572l-43.885714 7.314286z" fill="#8a8a8a" p-id="5652"></path></svg>