<?xml version="1.0" standalone="no"?><!DOCTYPE svg PUBLIC "-//W3C//DTD SVG 1.1//EN" "http://www.w3.org/Graphics/SVG/1.1/DTD/svg11.dtd"><svg t="1545817891475" class="icon" style="" viewBox="0 0 1024 1024" version="1.1" xmlns="http://www.w3.org/2000/svg" p-id="5524" xmlns:xlink="http://www.w3.org/1999/xlink" width="200" height="200"><defs><style type="text/css"></style></defs><path d="M277.942857 446.171429V168.228571h95.085714c95.085714 0 146.285714 43.885714 146.285715 131.657143 0 43.885714-14.628571 80.457143-43.885715 102.4-29.257143 29.257143-58.514286 43.885714-102.4 43.885715H277.942857zM336.457143 219.428571v182.857143H365.714286c29.257143 0 51.2-7.314286 65.828571-21.942857s21.942857-36.571429 21.942857-65.828571-7.314286-51.2-21.942857-65.828572C416.914286 226.742857 394.971429 219.428571 365.714286 219.428571h-29.257143zM563.2 446.171429V168.228571H658.285714c29.257143 0 51.2 7.314286 73.142857 14.628572 14.628571 14.628571 21.942857 29.257143 21.942858 43.885714 0 14.628571-7.314286 29.257143-14.628572 36.571429-7.314286 21.942857-21.942857 29.257143-36.571428 29.257143 21.942857 0 36.571429 7.314286 43.885714 21.942857 14.628571 14.628571 14.628571 29.257143 14.628571 43.885714 0 21.942857-7.314286 43.885714-29.257143 58.514286-7.314286 21.942857-29.257143 29.257143-65.828571 29.257143H563.2z m58.514286-234.057143v65.828571h29.257143c14.628571 0 21.942857 0 29.257142-7.314286 7.314286-7.314286 14.628571-14.628571 14.628572-29.257142 0-21.942857-14.628571-29.257143-43.885714-29.257143h-29.257143z m0 109.714285v73.142858H658.285714c14.628571 0 29.257143 0 36.571429-7.314286s14.628571-14.628571 14.628571-29.257143-7.314286-21.942857-14.628571-29.257143c-7.314286 0-21.942857-7.314286-36.571429-7.314286h-36.571428zM358.4 607.085714H241.371429v87.771429h109.714285v58.514286H241.371429v131.657142h-73.142858V548.571429h190.171429v58.514285zM402.285714 570.514286c0-7.314286 7.314286-21.942857 14.628572-29.257143s14.628571-7.314286 29.257143-7.314286 21.942857 0 29.257142 7.314286 14.628571 14.628571 14.628572 29.257143c0 7.314286-7.314286 21.942857-14.628572 29.257143s-21.942857 7.314286-29.257142 7.314285c-14.628571 0-21.942857 0-29.257143-7.314285s-14.628571-21.942857-14.628572-29.257143z m7.314286 314.514285V643.657143h65.828571V877.714286h-65.828571v7.314285zM541.257143 885.028571V533.942857h65.828571v351.085714h-65.828571zM877.714286 782.628571H724.114286c0 36.571429 21.942857 58.514286 65.828571 58.514286 29.257143 0 51.2-7.314286 65.828572-21.942857v51.2c-21.942857 14.628571-51.2 14.628571-87.771429 14.628571s-65.828571-7.314286-87.771429-29.257142S658.285714 804.571429 658.285714 768s7.314286-65.828571 29.257143-95.085714 51.2-36.571429 80.457143-36.571429c36.571429 0 58.514286 7.314286 80.457143 29.257143s29.257143 51.2 29.257143 87.771429v29.257142z m-65.828572-43.885714c0-36.571429-14.628571-51.2-43.885714-51.2-14.628571 0-21.942857 7.314286-29.257143 14.628572s-14.628571 21.942857-14.628571 36.571428h87.771428z" fill="#8a8a8a" p-id="5525"></path><path d="M892.342857 1024H131.657143c-73.142857 0-131.657143-58.514286-131.657143-131.657143V131.657143C0 58.514286 58.514286 0 131.657143 0h760.685714c73.142857 0 131.657143 58.514286 131.657143 131.657143v760.685714c0 73.142857-58.514286 131.657143-131.657143 131.657143zM131.657143 43.885714C80.457143 43.885714 43.885714 80.457143 43.885714 131.657143v760.685714c0 51.2 36.571429 87.771429 87.771429 87.771429h760.685714c51.2 0 87.771429-36.571429 87.771429-87.771429V131.657143c0-51.2-36.571429-87.771429-87.771429-87.771429H131.657143z" fill="#8a8a8a" p-id="5526"></path></svg>