<?xml version="1.0" standalone="no"?><!DOCTYPE svg PUBLIC "-//W3C//DTD SVG 1.1//EN" "http://www.w3.org/Graphics/SVG/1.1/DTD/svg11.dtd"><svg t="1545817885889" class="icon" style="" viewBox="0 0 1024 1024" version="1.1" xmlns="http://www.w3.org/2000/svg" p-id="5399" xmlns:xlink="http://www.w3.org/1999/xlink" width="200" height="200"><defs><style type="text/css"></style></defs><path d="M270.628571 446.171429V168.228571H365.714286c95.085714 0 146.285714 43.885714 146.285714 131.657143 0 43.885714-14.628571 80.457143-43.885714 102.4-29.257143 29.257143-58.514286 43.885714-102.4 43.885715H270.628571zM329.142857 219.428571v182.857143h29.257143c29.257143 0 51.2-7.314286 65.828571-21.942857s21.942857-36.571429 21.942858-65.828571-7.314286-51.2-21.942858-65.828572c-14.628571-21.942857-36.571429-29.257143-65.828571-29.257143h-29.257143zM555.885714 446.171429V168.228571h95.085715c29.257143 0 51.2 7.314286 73.142857 14.628572 14.628571 14.628571 21.942857 29.257143 21.942857 43.885714 0 14.628571-7.314286 29.257143-14.628572 36.571429-7.314286 21.942857-21.942857 29.257143-36.571428 29.257143 21.942857 0 36.571429 7.314286 43.885714 21.942857 14.628571 14.628571 14.628571 29.257143 14.628572 43.885714 0 21.942857-7.314286 43.885714-29.257143 58.514286-7.314286 21.942857-29.257143 29.257143-65.828572 29.257143H555.885714z m58.514286-234.057143v65.828571h29.257143c14.628571 0 21.942857 0 29.257143-7.314286 7.314286-7.314286 14.628571-14.628571 14.628571-29.257142 0-21.942857-14.628571-29.257143-43.885714-29.257143h-29.257143z m0 109.714285v73.142858h36.571429c14.628571 0 29.257143 0 36.571428-7.314286s14.628571-14.628571 14.628572-29.257143-7.314286-21.942857-14.628572-29.257143c-7.314286 0-21.942857-7.314286-36.571428-7.314286h-36.571429zM204.8 570.514286v117.028571h124.342857V570.514286h58.514286v292.571428h-58.514286V731.428571H204.8v131.657143H146.285714v-292.571428h58.514286zM490.057143 592.457143c0 14.628571-14.628571 29.257143-29.257143 29.257143-21.942857 0-36.571429-14.628571-36.571429-29.257143s14.628571-29.257143 29.257143-29.257143c21.942857 0 36.571429 14.628571 36.571429 29.257143z m-65.828572 277.942857v-219.428571h58.514286v212.114285h-58.514286v7.314286zM555.885714 650.971429l36.571429 109.714285c7.314286 21.942857 7.314286 36.571429 14.628571 51.2 7.314286-14.628571 7.314286-36.571429 14.628572-51.2l29.257143-109.714285h58.514285l-80.457143 212.114285h-51.2L497.371429 650.971429h58.514285zM760.685714 775.314286c0 36.571429 29.257143 51.2 65.828572 51.2 21.942857 0 43.885714-7.314286 58.514285-7.314286l7.314286 36.571429c-21.942857 7.314286-43.885714 14.628571-73.142857 14.628571-73.142857 0-109.714286-43.885714-109.714286-109.714286 0-58.514286 36.571429-117.028571 109.714286-117.028571s95.085714 58.514286 95.085714 102.4v21.942857h-153.6v7.314286z m95.085715-36.571429c0-21.942857-7.314286-51.2-43.885715-51.2-29.257143 0-43.885714 29.257143-51.2 51.2h95.085715z" fill="#8a8a8a" p-id="5400"></path><path d="M892.342857 1024H131.657143c-73.142857 0-131.657143-58.514286-131.657143-131.657143V131.657143C0 58.514286 58.514286 0 131.657143 0h760.685714c73.142857 0 131.657143 58.514286 131.657143 131.657143v760.685714c0 73.142857-58.514286 131.657143-131.657143 131.657143zM131.657143 43.885714C80.457143 43.885714 43.885714 80.457143 43.885714 131.657143v760.685714c0 51.2 36.571429 87.771429 87.771429 87.771429h760.685714c51.2 0 87.771429-36.571429 87.771429-87.771429V131.657143c0-51.2-36.571429-87.771429-87.771429-87.771429H131.657143z" fill="#8a8a8a" p-id="5401"></path></svg>