<?xml version="1.0" standalone="no"?><!DOCTYPE svg PUBLIC "-//W3C//DTD SVG 1.1//EN" "http://www.w3.org/Graphics/SVG/1.1/DTD/svg11.dtd"><svg t="1545817878237" class="icon" style="" viewBox="0 0 1024 1024" version="1.1" xmlns="http://www.w3.org/2000/svg" p-id="5149" xmlns:xlink="http://www.w3.org/1999/xlink" width="200" height="200"><defs><style type="text/css"></style></defs><path d="M241.371429 877.714286V548.571429h109.714285c117.028571 0 175.542857 51.2 175.542857 160.914285 0 51.2-14.628571 87.771429-51.2 124.342857-29.257143 29.257143-73.142857 43.885714-124.342857 43.885715H241.371429z m73.142857-270.628572v212.114286h36.571428c36.571429 0 58.514286-7.314286 80.457143-29.257143 21.942857-21.942857 29.257143-43.885714 29.257143-80.457143 0-29.257143-7.314286-58.514286-29.257143-73.142857-21.942857-21.942857-51.2-29.257143-80.457143-29.257143h-36.571428zM585.142857 877.714286V548.571429h117.028572c36.571429 0 65.828571 7.314286 80.457142 21.942857 21.942857 14.628571 29.257143 29.257143 29.257143 51.2 0 14.628571-7.314286 36.571429-14.628571 43.885714-14.628571 14.628571-29.257143 21.942857-43.885714 29.257143 21.942857 0 43.885714 14.628571 58.514285 21.942857 14.628571 14.628571 21.942857 29.257143 21.942857 51.2 0 29.257143-7.314286 51.2-29.257142 73.142857-21.942857 14.628571-51.2 29.257143-87.771429 29.257143H585.142857v7.314286z m73.142857-277.942857v80.457142h36.571429c14.628571 0 29.257143-7.314286 36.571428-14.628571 7.314286-7.314286 14.628571-21.942857 14.628572-29.257143 0-21.942857-21.942857-36.571429-58.514286-36.571428H658.285714zM658.285714 731.428571v87.771429h43.885715c14.628571 0 29.257143-7.314286 43.885714-14.628571 7.314286-7.314286 14.628571-21.942857 14.628571-36.571429s-7.314286-21.942857-14.628571-29.257143c-14.628571 0-29.257143-7.314286-51.2-7.314286H658.285714zM409.6 241.371429H314.514286v65.828571h87.771428v43.885714H314.514286v102.4h-58.514286V190.171429h153.6v51.2zM438.857143 204.8c0-7.314286 0-14.628571 7.314286-21.942857s14.628571-7.314286 21.942857-7.314286c7.314286 0 14.628571 0 21.942857 7.314286 7.314286 7.314286 7.314286 14.628571 7.314286 21.942857s0 14.628571-7.314286 21.942857c0 7.314286-7.314286 7.314286-14.628572 7.314286s-14.628571 0-21.942857-7.314286C446.171429 219.428571 438.857143 212.114286 438.857143 204.8z m7.314286 248.685714V270.628571h51.2v190.171429h-51.2v-7.314286zM548.571429 453.485714V175.542857h51.2v277.942857h-51.2zM819.2 380.342857H694.857143c0 29.257143 21.942857 43.885714 51.2 43.885714 21.942857 0 36.571429-7.314286 58.514286-14.628571v43.885714c-14.628571 7.314286-36.571429 14.628571-65.828572 14.628572s-51.2-7.314286-73.142857-21.942857-21.942857-51.2-21.942857-80.457143 7.314286-51.2 29.257143-73.142857 36.571429-29.257143 58.514285-29.257143c29.257143 0 43.885714 7.314286 65.828572 21.942857 14.628571 14.628571 21.942857 36.571429 21.942857 65.828571v29.257143z m-51.2-36.571428c0-29.257143-14.628571-43.885714-36.571429-43.885715-7.314286 0-14.628571 7.314286-21.942857 14.628572-7.314286 7.314286-14.628571 14.628571-14.628571 29.257143h73.142857z" fill="#8a8a8a" p-id="5150"></path><path d="M892.342857 1024H131.657143c-73.142857 0-131.657143-58.514286-131.657143-131.657143V131.657143C0 58.514286 58.514286 0 131.657143 0h760.685714c73.142857 0 131.657143 58.514286 131.657143 131.657143v760.685714c0 73.142857-58.514286 131.657143-131.657143 131.657143zM131.657143 43.885714C80.457143 43.885714 43.885714 80.457143 43.885714 131.657143v760.685714c0 51.2 36.571429 87.771429 87.771429 87.771429h760.685714c51.2 0 87.771429-36.571429 87.771429-87.771429V131.657143c0-51.2-36.571429-87.771429-87.771429-87.771429H131.657143z" fill="#8a8a8a" p-id="5151"></path></svg>