<?xml version="1.0" standalone="no"?><!DOCTYPE svg PUBLIC "-//W3C//DTD SVG 1.1//EN" "http://www.w3.org/Graphics/SVG/1.1/DTD/svg11.dtd"><svg t="1545817874523" class="icon" style="" viewBox="0 0 1024 1024" version="1.1" xmlns="http://www.w3.org/2000/svg" p-id="5024" xmlns:xlink="http://www.w3.org/1999/xlink" width="200" height="200"><defs><style type="text/css"></style></defs><path d="M892.342857 1024H131.657143c-73.142857 0-131.657143-58.514286-131.657143-131.657143V131.657143C0 58.514286 58.514286 0 131.657143 0h760.685714c73.142857 0 131.657143 58.514286 131.657143 131.657143v760.685714c0 73.142857-58.514286 131.657143-131.657143 131.657143zM131.657143 43.885714C80.457143 43.885714 43.885714 80.457143 43.885714 131.657143v760.685714c0 51.2 36.571429 87.771429 87.771429 87.771429h760.685714c51.2 0 87.771429-36.571429 87.771429-87.771429V131.657143c0-51.2-36.571429-87.771429-87.771429-87.771429H131.657143z" fill="#8a8a8a" p-id="5025"></path><path d="M409.6 248.685714v226.742857L585.142857 248.685714h131.657143L519.314286 482.742857l212.114285 292.571429H592.457143L409.6 504.685714v270.628572H292.571429V248.685714h117.028571z" fill="#8a8a8a" p-id="5026"></path></svg>