<?xml version="1.0" standalone="no"?><!DOCTYPE svg PUBLIC "-//W3C//DTD SVG 1.1//EN" "http://www.w3.org/Graphics/SVG/1.1/DTD/svg11.dtd"><svg t="1545817881582" class="icon" style="" viewBox="0 0 1024 1024" version="1.1" xmlns="http://www.w3.org/2000/svg" p-id="5274" xmlns:xlink="http://www.w3.org/1999/xlink" width="200" height="200"><defs><style type="text/css"></style></defs><path d="M124.342857 555.885714c21.942857 21.942857 51.2 29.257143 87.771429 29.257143 21.942857 0 29.257143 0 43.885714-7.314286 7.314286-7.314286 14.628571-14.628571 14.628571-21.942857 0-7.314286-7.314286-14.628571-14.628571-21.942857-7.314286-14.628571-29.257143-21.942857-58.514286-36.571428-51.2-21.942857-73.142857-51.2-73.142857-87.771429 0-29.257143 14.628571-51.2 36.571429-65.828571s51.2-21.942857 87.771428-21.942858c29.257143 0 58.514286 7.314286 80.457143 14.628572v65.828571c-29.257143-29.257143-51.2-36.571429-80.457143-36.571428-14.628571 0-29.257143 7.314286-43.885714 14.628571-7.314286 0-14.628571 14.628571-14.628571 21.942857s0 14.628571 7.314285 21.942857l58.514286 29.257143c29.257143 14.628571 51.2 29.257143 65.828571 43.885715s14.628571 29.257143 14.628572 51.2c0 29.257143-7.314286 51.2-29.257143 65.828571-21.942857 21.942857-58.514286 29.257143-95.085714 29.257143s-65.828571-7.314286-87.771429-21.942857v-65.828572zM365.714286 482.742857c0-51.2 14.628571-87.771429 43.885714-124.342857 29.257143-29.257143 73.142857-43.885714 117.028571-43.885714s80.457143 14.628571 109.714286 43.885714 43.885714 65.828571 43.885714 117.028571-14.628571 87.771429-43.885714 117.028572c0 0 0 7.314286-7.314286 7.314286l80.457143 80.457142H607.085714l-36.571428-43.885714c-14.628571 0-29.257143 7.314286-51.2 7.314286-43.885714 0-80.457143-14.628571-109.714286-43.885714-29.257143-36.571429-43.885714-73.142857-43.885714-117.028572z m73.142857-7.314286c0 29.257143 7.314286 58.514286 21.942857 73.142858 14.628571 21.942857 36.571429 36.571429 65.828571 36.571428 21.942857 0 43.885714-14.628571 58.514286-29.257143 14.628571-21.942857 21.942857-43.885714 21.942857-73.142857s-7.314286-58.514286-21.942857-80.457143c-14.628571-21.942857-36.571429-29.257143-58.514286-29.257143-29.257143 0-43.885714 7.314286-65.828571 29.257143-14.628571 21.942857-21.942857 43.885714-21.942857 73.142857zM914.285714 636.342857H731.428571V321.828571h65.828572V585.142857h117.028571v51.2z" fill="#8a8a8a" p-id="5275"></path><path d="M892.342857 1024H131.657143c-73.142857 0-131.657143-58.514286-131.657143-131.657143V131.657143C0 58.514286 58.514286 0 131.657143 0h760.685714c73.142857 0 131.657143 58.514286 131.657143 131.657143v760.685714c0 73.142857-58.514286 131.657143-131.657143 131.657143zM131.657143 43.885714C80.457143 43.885714 43.885714 80.457143 43.885714 131.657143v760.685714c0 51.2 36.571429 87.771429 87.771429 87.771429h760.685714c51.2 0 87.771429-36.571429 87.771429-87.771429V131.657143c0-51.2-36.571429-87.771429-87.771429-87.771429H131.657143z" fill="#8a8a8a" p-id="5276"></path></svg>